<svg width="1055" height="1128" viewBox="0 0 1055 1128" fill="none" xmlns="http://www.w3.org/2000/svg">
<path fill-rule="evenodd" clip-rule="evenodd" d="M917 419.167L903.013 77.1202L811.946 115.054L813.12 407.498L893.667 449.548L917 419.167ZM630.6 434.961C591.093 439.628 541.88 449.76 519.267 462.824L527.653 894.999C527.653 915.767 545.64 933.297 581.533 947.673L328.92 944.109C359.04 931.324 377.427 912.16 384.027 886.635V549.024C339.507 573.772 300 590.544 265.48 599.275V837.553C269.48 861.484 288.213 880.229 321.733 893.792L47.5732 890.229C91.4799 876.667 113.413 852.699 113.413 818.385V587.339C103.733 585.044 94.6799 582.349 86.2266 579.284C77.7866 576.212 69.9599 572.747 62.7465 568.916C55.5465 565.085 48.9466 560.843 42.9866 556.229C37.0133 551.621 31.6399 546.608 26.9066 541.229C22.1732 535.839 18.0532 530.072 14.5465 523.911C11.0399 517.743 8.15994 511.193 5.89328 504.265C3.62661 497.328 1.9732 490 0.946532 482.292C-4.1068 444.625 39.9199 435.271 71.5332 435.271C77.9066 435.271 84.6932 435.652 91.8799 436.472L48.7866 453.237C25.84 464.717 33.7465 492.139 46.3465 508.34C48.8265 511.551 51.72 514.635 54.9866 517.573C58.2533 520.516 61.92 523.333 65.9866 526.005C70.0533 528.688 74.52 531.251 79.3866 533.665C84.2533 536.083 89.52 538.368 95.1866 540.529C100.853 542.679 106.933 544.705 113.413 546.596L109.653 173.054C106.253 145.12 90.8666 125.2 63.12 113.24H287C268.68 127.6 259.467 144.36 259.467 163.533L265.48 549.024C298.387 537.835 337.907 518.264 384.027 490.347V153.907C384.027 133.96 382.4 120.813 379.373 114.4C373.027 102.44 357.08 90.4801 331.32 78.5068L562.387 74.9202C532.84 100.427 516.88 122.413 514.493 140.747L519.267 410.135C559 389.389 621.626 378.663 677.546 379.307L632.173 0.0668682H811.946V63.1202L924.013 16.4135L1054.77 190.367L1029.11 454.204L903.013 521.931L813.12 428.513L814.28 678.371L769.907 610.656L765.24 601.291L772.267 905.999L734.893 847.643L709.226 1127.81L625.16 645.663L667.173 673.684L630.6 434.961Z" fill="white"/>
</svg>
